<svg xmlns="http://www.w3.org/2000/svg" width="1536" height="864" viewBox="0 0 1536 864" preserveAspectRatio="xMidYMid slice" role="img" aria-label="Sivflow flowing blue background">
  <defs>
    <linearGradient id="sky" x1="124" y1="788" x2="1414" y2="42" gradientUnits="userSpaceOnUse">
      <stop offset="0" stop-color="#0d2638" />
      <stop offset="0.2" stop-color="#2a7790" />
      <stop offset="0.47" stop-color="#e9f8ff" />
      <stop offset="1" stop-color="#f8fcff" />
    </linearGradient>
    <linearGradient id="deepSweep" x1="-122" y1="729" x2="742" y2="149" gradientUnits="userSpaceOnUse">
      <stop offset="0" stop-color="#071421" />
      <stop offset="0.34" stop-color="#064a65" />
      <stop offset="0.62" stop-color="#38b8d8" stop-opacity="0.74" />
      <stop offset="1" stop-color="#fff" stop-opacity="0.1" />
    </linearGradient>
    <linearGradient id="lightSweep" x1="-95" y1="673" x2="1390" y2="140" gradientUnits="userSpaceOnUse">
      <stop offset="0" stop-color="#fff" stop-opacity="0" />
      <stop offset="0.15" stop-color="#b9efff" stop-opacity="0.72" />
      <stop offset="0.38" stop-color="#fff" stop-opacity="0.9" />
      <stop offset="0.68" stop-color="#c8e8f5" stop-opacity="0.38" />
      <stop offset="1" stop-color="#fff" stop-opacity="0" />
    </linearGradient>
    <linearGradient id="silverSweep" x1="-24" y1="326" x2="1535" y2="724" gradientUnits="userSpaceOnUse">
      <stop offset="0" stop-color="#fff" stop-opacity="0.22" />
      <stop offset="0.45" stop-color="#dbeaf1" stop-opacity="0.54" />
      <stop offset="1" stop-color="#fff" stop-opacity="0" />
    </linearGradient>
    <radialGradient id="softCenter" cx="55%" cy="45%" r="58%">
      <stop offset="0" stop-color="#fff" stop-opacity="0.75" />
      <stop offset="0.46" stop-color="#fff" stop-opacity="0.22" />
      <stop offset="1" stop-color="#fff" stop-opacity="0" />
    </radialGradient>
    <filter id="blurWide" x="-8%" y="-20%" width="116%" height="140%" color-interpolation-filters="sRGB">
      <feGaussianBlur stdDeviation="14" />
    </filter>
    <filter id="blurSoft" x="-8%" y="-20%" width="116%" height="140%" color-interpolation-filters="sRGB">
      <feGaussianBlur stdDeviation="5" />
    </filter>
  </defs>
  <rect width="1536" height="864" fill="url(#sky)" />
  <path d="M-118 690C143 509 306 399 545 350C813 295 1093 293 1660 86V884H-118Z" fill="#fff" opacity="0.58" />
  <path d="M-180 660C-28 499 177 394 420 337C675 277 985 275 1634 68L1544 865H-180Z" fill="url(#silverSweep)" opacity="0.82" />
  <path d="M-198 777C-18 553 162 442 394 396C622 351 880 373 1594 218V864H-198Z" fill="url(#deepSweep)" opacity="0.72" filter="url(#blurWide)" />
  <path d="M-108 626C180 485 392 442 618 431C846 420 1109 443 1634 318" fill="none" stroke="url(#lightSweep)" stroke-width="72" stroke-linecap="round" opacity="0.72" filter="url(#blurSoft)" />
  <path d="M-78 733C209 567 453 514 689 512C932 509 1141 558 1642 413" fill="none" stroke="#f7fdff" stroke-width="24" stroke-linecap="round" opacity="0.7" filter="url(#blurSoft)" />
  <path d="M-140 414C118 276 353 193 604 163C849 135 1118 155 1630 42" fill="none" stroke="#fff" stroke-width="36" stroke-linecap="round" opacity="0.42" filter="url(#blurSoft)" />
  <path d="M-108 332C115 236 335 187 579 171C826 154 1068 181 1586 82" fill="none" stroke="#bcefff" stroke-width="18" stroke-linecap="round" opacity="0.5" filter="url(#blurSoft)" />
  <path d="M-122 828C157 631 389 553 642 548C885 544 1123 619 1634 498" fill="none" stroke="#fff" stroke-width="46" stroke-linecap="round" opacity="0.3" filter="url(#blurWide)" />
  <rect width="1536" height="864" fill="url(#softCenter)" />
</svg>
