<svg xmlns="http://www.w3.org/2000/svg" width="512" height="512" viewBox="0 0 512 512" role="img" aria-labelledby="sivflow-logo-title">
  <title id="sivflow-logo-title">Sivflow logo</title>
  <defs>
    <linearGradient id="sivflow-gradient-orange" x1="166" y1="56" x2="342" y2="254" gradientUnits="userSpaceOnUse">
      <stop offset="0" stop-color="#ff5f16" />
      <stop offset="1" stop-color="#ffbd18" />
    </linearGradient>
    <linearGradient id="sivflow-gradient-cyan" x1="70" y1="212" x2="264" y2="414" gradientUnits="userSpaceOnUse">
      <stop offset="0" stop-color="#12c4d8" />
      <stop offset="1" stop-color="#57dfc8" />
    </linearGradient>
    <linearGradient id="sivflow-gradient-magenta" x1="258" y1="227" x2="434" y2="438" gradientUnits="userSpaceOnUse">
      <stop offset="0" stop-color="#f15c9f" />
      <stop offset="1" stop-color="#bb4fd8" />
    </linearGradient>
  </defs>
  <g fill-rule="evenodd" clip-rule="evenodd">
    <path fill="url(#sivflow-gradient-orange)" d="M 254.79 61.21 C 242.04 58.18 251.15 76.18 237.8 90.34 C 224.45 104.5 187.83 128.17 174.69 146.17 C 161.54 164.17 160.73 187.63 158.91 198.35 C 157.09 209.07 157.9 212.11 163.76 210.49 C 169.63 208.87 182.17 191.68 194.11 188.64 C 206.04 185.61 225.86 188.24 235.37 192.28 C 244.88 196.33 250.34 209.28 251.15 212.92 C 251.95 216.56 240.22 209.28 240.22 214.13 C 240.22 218.98 243.66 232.74 251.15 242.04 C 258.63 251.35 278.25 266.92 285.13 269.96 C 292 272.99 293.82 272.99 292.41 260.25 C 290.99 247.5 280.68 206.44 276.63 193.5 C 272.59 180.55 269.75 180.55 268.14 182.58 C 266.52 184.6 272.59 209.68 266.92 205.63 C 261.26 201.59 234.76 164.98 234.15 158.3 C 233.55 151.63 251.55 155.88 263.28 165.59 C 275.01 175.29 299.08 197.34 304.54 216.56 C 310.01 235.77 292.61 273.6 296.05 280.88 C 299.49 288.16 318.1 267.93 325.18 260.25 C 332.26 252.56 335.49 249.33 338.53 234.76 C 341.56 220.2 347.43 193.9 343.38 172.87 C 339.34 151.83 329.02 127.15 314.25 108.54 C 299.49 89.94 267.53 64.25 254.79 61.21 Z" />
    <path fill="url(#sivflow-gradient-cyan)" d="M 217.16 214.13 C 210.49 203.81 221.82 233.95 217.16 234.76 C 212.51 235.57 201.79 221.01 189.25 218.98 C 176.71 216.96 158.3 214.74 141.92 222.63 C 125.54 230.51 102.68 246.09 90.95 266.32 C 79.22 286.54 71.93 320.12 71.53 343.99 C 71.12 367.86 64.45 395.97 88.52 409.52 C 112.59 423.08 188.44 424.9 215.95 425.3 C 243.46 425.7 242.25 419.64 253.57 411.95 C 264.9 404.26 286.34 386.06 283.91 379.18 C 281.49 372.31 251.55 376.15 239.01 370.69 C 226.47 365.23 215.34 358.75 208.67 346.41 C 201.99 334.08 203.21 302.52 198.96 296.66 C 194.71 290.79 187.23 303.13 183.18 311.22 C 179.14 319.31 175.9 348.03 174.69 345.2 C 173.47 342.37 178.33 302.32 175.9 294.23 C 173.47 286.14 158.3 300.7 160.12 296.66 C 161.94 292.61 183.99 276.23 186.82 269.96 C 189.66 263.69 174.28 260.05 177.11 259.03 C 179.95 258.02 199.97 261.06 203.81 263.89 C 207.66 266.72 193.5 269.55 200.17 276.02 C 206.85 282.5 234.36 299.29 243.86 302.72 C 253.37 306.16 261.66 311.42 257.21 296.66 C 252.76 281.89 223.84 224.45 217.16 214.13 Z" />
    <path fill="url(#sivflow-gradient-magenta)" d="M 372.51 229.91 C 362.39 219.19 357.34 214.53 354.3 221.41 C 351.27 228.29 357.94 257.01 354.3 271.17 C 350.66 285.33 341.96 299.89 332.46 306.37 C 322.95 312.84 299.69 312.23 297.26 310.01 C 294.84 307.78 316.48 296.05 317.89 293.02 C 319.31 289.98 316.68 287.55 305.76 291.8 C 294.84 296.05 262.27 310.41 252.36 318.5 C 242.45 326.59 249.12 336.1 246.29 340.35 C 243.46 344.59 235.37 341.56 235.37 343.99 C 235.37 346.41 236.18 354.71 246.29 354.91 C 256.4 355.11 288.36 348.03 296.05 345.2 C 303.74 342.37 291.4 339.94 292.41 337.92 C 293.42 335.9 295.44 332.46 302.12 333.07 C 308.79 333.67 330.44 339.34 332.46 341.56 C 334.48 343.79 322.55 337.51 314.25 346.41 C 305.96 355.31 295.64 380.6 282.7 394.96 C 269.75 409.32 236.18 423.68 236.58 432.58 C 236.99 441.48 267.12 445.33 285.13 448.36 C 303.13 451.39 324.17 453.42 344.59 450.79 C 365.02 448.16 391.52 439.46 407.7 432.58 C 423.88 425.7 439.86 425.1 441.68 409.52 C 443.5 393.95 423.08 359.76 418.63 339.13 C 414.18 318.5 422.67 303.94 414.98 285.73 C 407.3 267.53 382.62 240.63 372.51 229.91 Z M 387.07 334.28 C 388.28 333.67 389.09 334.48 389.5 335.49 C 389.9 336.5 390.51 339.34 389.5 340.35 C 388.49 341.36 384.64 341.76 383.43 341.56 C 382.22 341.36 381.61 340.35 382.22 339.13 C 382.82 337.92 385.86 334.89 387.07 334.28 Z M 259.64 331.85 C 259.24 331.04 259.84 328.62 260.85 328.21 C 261.87 327.81 265.3 328.62 265.71 329.42 C 266.11 330.23 264.29 332.66 263.28 333.07 C 262.27 333.47 260.05 332.66 259.64 331.85 Z" />
  </g>
</svg>
