<svg width="512" height="512" viewBox="0 0 512 512" xmlns="http://www.w3.org/2000/svg">
  <defs>
    <linearGradient id="a" x1="235" y1="36" x2="370" y2="286" gradientUnits="userSpaceOnUse"><stop stop-color="#ff4b0b"/><stop offset="1" stop-color="#ffc21c"/></linearGradient>
    <linearGradient id="b" x1="60" y1="255" x2="295" y2="430" gradientUnits="userSpaceOnUse"><stop stop-color="#14bbd9"/><stop offset="1" stop-color="#00a7c9"/></linearGradient>
    <linearGradient id="c" x1="250" y1="455" x2="475" y2="230" gradientUnits="userSpaceOnUse"><stop stop-color="#a34bea"/><stop offset="0.55" stop-color="#df3aa7"/><stop offset="1" stop-color="#ff69a8"/></linearGradient>
  </defs>
  <path d="M263 36c56 30 100 79 116 137 18 65-5 116-73 154 26-38 27-93-4-137-26-37-65-55-103-44 32-23 54-58 64-110z" fill="url(#a)"/>
  <path d="M78 431c-39-85-9-164 61-201 65-35 130-15 165 43-38-24-84-21-119 7-36 30-46 77-20 114-31-14-59 5-87 37z" fill="url(#b)"/>
  <path d="M238 455c72 33 162 17 238-27-24-34-18-96-45-150-24-46-62-65-98-56 23 43 9 91-36 111 36-12 75 6 93 46-38 40-86 65-152 76z" fill="url(#c)"/>
  <path d="M210 148c54-6 117 36 141 99 20 53-8 103-64 124-43 15-85 3-109-25-22-25-18-56 11-77-17 1-34 8-48 19 17-33 49-49 83-45-19-12-43-19-69-17 50-27 103-15 137 25-11-34-37-66-82-103z" fill="#fff"/>
  <path d="M303 262c-12-26-12-52-25-75-4 24-11 42-28 54 14 5 26 12 36 24 6 4 14 4 17-3z" fill="url(#a)"/>
  <path d="M250 304c-11-24-35-46-66-55 15 19 28 37 28 55 14-7 27-7 38 0z" fill="url(#b)"/>
  <path d="M262 345c14-19 36-33 64-39-19 18-29 32-32 48-11-7-22-10-32-9z" fill="url(#c)"/>
</svg>
