<svg xmlns="http://www.w3.org/2000/svg" width="512" height="512" viewBox="0 0 512 512" role="img" aria-label="Sivflow logo">
  <defs>
    <linearGradient id="frameTop" x1="122" y1="122" x2="390" y2="390" gradientUnits="userSpaceOnUse">
      <stop offset="0" stop-color="#0EA5FF" />
      <stop offset="0.5" stop-color="#267CFF" />
      <stop offset="1" stop-color="#8A2DFF" />
    </linearGradient>
    <linearGradient id="markGradient" x1="175" y1="157" x2="337" y2="365" gradientUnits="userSpaceOnUse">
      <stop offset="0" stop-color="#0AA8FF" />
      <stop offset="0.48" stop-color="#257AFF" />
      <stop offset="1" stop-color="#8B31F6" />
    </linearGradient>
    <filter id="tileShadow" x="32" y="30" width="448" height="460" color-interpolation-filters="sRGB" filterUnits="userSpaceOnUse">
      <feDropShadow dx="0" dy="18" stdDeviation="24" flood-color="#0F172A" flood-opacity="0.12" />
      <feDropShadow dx="0" dy="2" stdDeviation="4" flood-color="#0F172A" flood-opacity="0.06" />
    </filter>
    <filter id="softGlow" x="116" y="128" width="280" height="260" color-interpolation-filters="sRGB" filterUnits="userSpaceOnUse">
      <feDropShadow dx="0" dy="8" stdDeviation="8" flood-color="#4F46E5" flood-opacity="0.16" />
    </filter>
  </defs>
  <rect width="512" height="512" fill="#FFFFFF" />
  <rect x="54" y="56" width="404" height="404" rx="82" fill="#FFFFFF" filter="url(#tileShadow)" />
  <path d="M132 211V154C132 139.641 143.641 128 158 128H213" fill="none" stroke="url(#frameTop)" stroke-width="9" stroke-linecap="round" stroke-linejoin="round" />
  <path d="M299 128H354C368.359 128 380 139.641 380 154V211" fill="none" stroke="url(#frameTop)" stroke-width="9" stroke-linecap="round" stroke-linejoin="round" />
  <path d="M132 301V358C132 372.359 143.641 384 158 384H213" fill="none" stroke="url(#frameTop)" stroke-width="9" stroke-linecap="round" stroke-linejoin="round" />
  <path d="M299 384H354C368.359 384 380 372.359 380 358V301" fill="none" stroke="url(#frameTop)" stroke-width="9" stroke-linecap="round" stroke-linejoin="round" />
  <g filter="url(#softGlow)">
    <path d="M319 174C283 168 222 169 191 198C164 223 171 258 225 263C281 268 331 263 324 305C316 354 237 356 181 342" fill="none" stroke="url(#markGradient)" stroke-width="62" stroke-linecap="round" stroke-linejoin="round" />
    <path d="M157 360L198 318L218 352L175 371Z" fill="#111A3A" />
    <path d="M198 318L229 345" fill="none" stroke="#FFFFFF" stroke-width="10" stroke-linecap="round" />
  </g>
</svg>
