<svg xmlns="http://www.w3.org/2000/svg" width="512" height="512" viewBox="0 0 512 512" role="img" aria-label="Sivflow logo">
  <defs>
    <linearGradient id="sivflowOfficialTop" x1="46" y1="258" x2="486" y2="42" gradientUnits="userSpaceOnUse">
      <stop offset="0" stop-color="#00142d" />
      <stop offset="0.36" stop-color="#062849" />
      <stop offset="0.58" stop-color="#1f8bc4" />
      <stop offset="0.78" stop-color="#32bff1" />
      <stop offset="1" stop-color="#effcff" />
    </linearGradient>
    <linearGradient id="sivflowOfficialMiddle" x1="133" y1="276" x2="428" y2="213" gradientUnits="userSpaceOnUse">
      <stop offset="0" stop-color="#00142d" />
      <stop offset="0.5" stop-color="#0b355d" />
      <stop offset="0.82" stop-color="#7ecde9" />
      <stop offset="1" stop-color="#f7fdff" />
    </linearGradient>
    <linearGradient id="sivflowOfficialBottom" x1="24" y1="466" x2="476" y2="229" gradientUnits="userSpaceOnUse">
      <stop offset="0" stop-color="#00142d" />
      <stop offset="0.36" stop-color="#062345" />
      <stop offset="0.66" stop-color="#1daee6" />
      <stop offset="0.9" stop-color="#58cef3" />
      <stop offset="1" stop-color="#effcff" />
    </linearGradient>
    <radialGradient id="sivflowOfficialTopGlow" cx="79%" cy="12%" r="48%">
      <stop offset="0" stop-color="#fff" stop-opacity="0.78" />
      <stop offset="0.35" stop-color="#b9efff" stop-opacity="0.36" />
      <stop offset="1" stop-color="#fff" stop-opacity="0" />
    </radialGradient>
    <radialGradient id="sivflowOfficialBottomGlow" cx="78%" cy="76%" r="46%">
      <stop offset="0" stop-color="#fff" stop-opacity="0.5" />
      <stop offset="0.44" stop-color="#6edcff" stop-opacity="0.2" />
      <stop offset="1" stop-color="#fff" stop-opacity="0" />
    </radialGradient>
    <filter id="sivflowOfficialShadow" x="-10%" y="-10%" width="120%" height="120%" color-interpolation-filters="sRGB">
      <feDropShadow dx="0" dy="3" stdDeviation="3" flood-color="#001a38" flood-opacity="0.12" />
    </filter>
  </defs>
  <g filter="url(#sivflowOfficialShadow)">
    <path fill="url(#sivflowOfficialTop)" d="M485 41C468 73 444 99 410 115C396 121 380 122 377 122H273C231 122 180 127 136 157C88 190 62 240 73 277C82 307 111 335 152 352C79 325 38 271 45 204C51 142 88 87 137 60C171 41 211 31 239 31H452C475 31 495 37 485 41Z" />
    <path fill="url(#sivflowOfficialMiddle)" d="M138 300C149 268 164 246 194 224C214 210 238 207 251 207H427C409 238 389 263 360 284C333 303 298 302 292 302H141C139 302 138 301 138 300Z" />
    <path fill="url(#sivflowOfficialBottom)" d="M466 206C485 252 481 315 463 336C442 388 405 430 348 459C318 474 279 481 210 481H26C25 480 25 478 25 477C46 427 79 397 116 389C126 386 136 385 141 385H259C317 384 369 370 409 326C442 290 461 245 466 206Z" />
    <rect width="512" height="512" fill="url(#sivflowOfficialTopGlow)" opacity="0.9" />
    <rect width="512" height="512" fill="url(#sivflowOfficialBottomGlow)" opacity="0.9" />
  </g>
</svg>
